:version 1.10
:name ASF
:units
  mass 1
  length 1
  angle deg
:documentation
  ASF file generated by Kaydara
:root
  axis xyz
  order  tx ty tz rx ry rz
  position 0 0 0
  orientation 0 0 0
:bonedata
  begin
    id 1
    name LeftUpLegDummy
    direction 1 -2.30186e-007 -8.31532e-007
    length 2.93387
    axis 0 0 0 xyz
  end
  begin
    id 2
    name LeftUpLeg
    direction -1.82929e-007 -1 -1.48925e-009
    length 17.3336
    axis -3.48766 0.00143442 -0.000521554 xyz
    dof rx ry rz
  end
  begin
    id 3
    name LeftLeg
    direction -1.82929e-007 -1 -5.23717e-011
    length 14.9995
    axis 3.68178 -0.00654042 -0.000282425 xyz
    dof rx ry rz
  end
  begin
    id 4
    name LeftFoot
    direction 8.31532e-007 -4.54534e-011 1
    length 6.74421
    axis 1.87234e-006 4.66016e-005 -5.96866e-006 xyz
    dof rx ry rz
  end
  begin
    id 5
    name LeftToes
    direction 0.00818058 -0.00485161 0.999955
    length 3.85048
    axis 1.06247e-005 4.65869e-005 -5.96999e-006 xyz
    dof rx ry rz
  end
  begin
    id 6
    name SpineDummy
    direction -5.8607e-008 0.943407 -0.331637
    length 5.93572
    axis 0 0 0 xyz
  end
  begin
    id 7
    name Spine
    direction -1.04988e-007 0.999988 0.00495137
    length 10.1015
    axis -0.001389 0.000121417 6.61666e-006 xyz
    dof rx ry rz
  end
  begin
    id 8
    name Spine1
    direction 0 0 0
    length 0
    axis -0.001389 0.00012144 6.56766e-006 xyz
    dof rx ry rz
  end
  begin
    id 9
    name RightShoulderDummy
    direction -0.98348 0.17941 -0.0240696
    length 3.59882
    axis -0.001389 0.00012144 6.56766e-006 xyz
  end
  begin
    id 10
    name RightShoulder
    direction -0.978693 0.204882 0.0135597
    length 2.70001
    axis 0.215806 0.000203631 -0.00679732 xyz
    dof rx ry rz
  end
  begin
    id 11
    name RightArm
    direction -1 3.85509e-006 8.31394e-007
    length 10.2459
    axis -23.2009 -0.134239 -0.964098 xyz
    dof rx ry rz
  end
  begin
    id 12
    name RightForeArm
    direction -1 3.85569e-006 8.3129e-007
    length 8.16799
    axis -9.92322 0.0658061 0.17887 xyz
    dof rx ry rz
  end
  begin
    id 13
    name RightHand
    direction -0.992843 -0.0414604 0.112003
    length 5.28593
    axis -0.00960638 0.00330669 -0.185225 xyz
    dof rx ry rz
  end
  begin
    id 14
    name LeftShoulder1Dummy
    direction 0.983523 0.179172 -0.0240748
    length 3.59866
    axis -0.001389 0.00012144 6.56766e-006 xyz
  end
  begin
    id 15
    name LeftShoulder1
    direction 0.978627 0.205195 0.0135605
    length 2.70019
    axis -0.001389 0.00012144 6.57583e-006 xyz
    dof rx ry rz
  end
  begin
    id 16
    name LeftArm
    direction 1 3.51895e-006 -8.60188e-007
    length 10.2459
    axis -23.1894 0.134785 0.967513 xyz
    dof rx ry rz
  end
  begin
    id 17
    name LeftForeArm
    direction 1 3.51921e-006 -7.32029e-007
    length 8.16799
    axis -9.91835 -0.0656957 -0.177789 xyz
    dof rx ry rz
  end
  begin
    id 18
    name LeftHand
    direction 0.992938 -0.0411636 0.11126
    length 5.32135
    axis -0.00960237 -0.00340661 0.185177 xyz
    dof rx ry rz
  end
  begin
    id 19
    name HEadDummy
    direction 1.01974e-006 0.999861 -0.016675
    length 2.99946
    axis -0.001389 0.00012144 6.56766e-006 xyz
  end
  begin
    id 20
    name HEad
    direction -0.0222689 0.980941 0.193023
    length 5.12695
    axis -0.001389 0.00012144 6.56766e-006 xyz
    dof rx ry rz
  end
  begin
    id 21
    name RightUpLegDummy
    direction -1 2.30186e-007 8.31532e-007
    length 2.93387
    axis 0 0 0 xyz
  end
  begin
    id 22
    name RightUpLeg
    direction -1.82966e-007 -1 1.56832e-007
    length 17.3336
    axis -3.4909 -0.000906625 0.00028951 xyz
    dof rx ry rz
  end
  begin
    id 23
    name RightLeg
    direction -1.82786e-007 -1 -1.80317e-007
    length 14.9995
    axis 3.68513 0.0193739 -0.131021 xyz
    dof rx ry rz
  end
  begin
    id 24
    name RightFoot
    direction 8.31721e-007 -4.63324e-011 1
    length 6.74421
    axis 4.81691e-005 -0.120479 -0.188785 xyz
    dof rx ry rz
  end
  begin
    id 25
    name RightToes
    direction 0.00124746 -0.014064 0.9999
    length 3.85082
    axis 0.000481921 0.542163 -0.142575 xyz
    dof rx ry rz
  end
:hierarchy
  begin
    root LeftUpLegDummy SpineDummy RightUpLegDummy
    LeftUpLegDummy LeftUpLeg
    LeftUpLeg LeftLeg
    LeftLeg LeftFoot
    LeftFoot LeftToes
    SpineDummy Spine
    Spine Spine1
    Spine1 RightShoulderDummy LeftShoulder1Dummy HEadDummy
    RightShoulderDummy RightShoulder
    RightShoulder RightArm
    RightArm RightForeArm
    RightForeArm RightHand
    LeftShoulder1Dummy LeftShoulder1
    LeftShoulder1 LeftArm
    LeftArm LeftForeArm
    LeftForeArm LeftHand
    HEadDummy HEad
    RightUpLegDummy RightUpLeg
    RightUpLeg RightLeg
    RightLeg RightFoot
    RightFoot RightToes
  end

:SAMPLES-PER-SECOND 30
:FULLY-SPECIFIED
:DEGREES
93
root  -8.29805 34.512 -0.626198 4.79924 17.574 -3.97255
LeftUpLeg  -10.1359 11.6143 0.000991754
LeftLeg  10.6562 10.6867 1.29831
LeftFoot  -0.648664 -0.00110018 -0.114029
LeftToes  -4.7765 6.91067e-007 1.07128e-007
Spine  1.54133 0.64023 -0.511013
Spine1  2.99849 1.22531 -0.826497
RightShoulder  0.0063825 6.54606 4.44005
RightArm  -38.9438 -20.9965 75.9359
RightForeArm  22.0749 23.1686 4.32318
RightHand  0.303438 -6.53615 -4.99994
LeftShoulder1  0.0248583 -0.535164 -8.88014
LeftArm  -19.586 12.7822 -64.4854
LeftForeArm  25.844 -18.253 -3.32784
LeftHand  0.208744 5.21312 4.10784
HEad  -2.98825 2.16826 -1.86675
RightUpLeg  -9.16911 -12.3988 -1.79368
RightLeg  18.1034 5.03168 1.29182
RightFoot  3.58203 -0.0021202 0.327828
RightToes  -38.4246 -0.206022 -0.306051
94
root  -8.21952 34.5433 -0.482783 4.66182 17.7096 -4.31043
LeftUpLeg  -9.87119 11.5168 0.313913
LeftLeg  10.7334 10.7296 1.31805
LeftFoot  -0.8341 -0.00110452 -0.151749
LeftToes  -4.57963 6.91067e-007 1.07128e-007
Spine  1.44271 0.722548 -0.320784
Spine1  2.80707 1.40332 -0.484207
RightShoulder  0.00816734 6.43816 4.45835
RightArm  -38.16 -20.6866 75.5094
RightForeArm  21.7182 23.666 4.42765
RightHand  0.304294 -6.49039 -4.91966
LeftShoulder1  0.0213882 -0.491048 -8.69947
LeftArm  -19.7707 13.7676 -65.4325
LeftForeArm  25.7234 -18.2797 -3.33311
LeftHand  0.20522 5.28542 4.06863
HEad  -2.13781 2.39137 -1.85753
RightUpLeg  -8.10225 -12.5281 -1.56308
RightLeg  16.5009 4.96233 1.12793
RightFoot  4.21644 -0.00437539 0.375047
RightToes  -38.4429 -0.207689 -0.30824
95
root  -8.14478 34.559 -0.349329 4.66144 17.6265 -4.45206
LeftUpLeg  -9.6724 11.5381 0.421087
LeftLeg  10.7997 10.8652 1.34719
LeftFoot  -1.06144 -0.00184116 -0.198772
LeftToes  -4.31969 6.91067e-007 1.07128e-007
Spine  1.34434 0.842844 -0.210587
Spine1  2.61514 1.6564 -0.291078
RightShoulder  0.00934059 6.35691 4.47283
RightArm  -37.6304 -20.3881 75.2155
RightForeArm  21.6168 24.2356 4.54832
RightHand  0.306854 -6.43938 -4.94916
LeftShoulder1  0.0188377 -0.387609 -8.59424
LeftArm  -19.3029 14.9048 -66.0975
LeftForeArm  25.3899 -18.5264 -3.3815
LeftHand  0.195794 5.27881 3.87029
HEad  -1.60807 2.61044 -1.72321
RightUpLeg  -7.24789 -12.1645 -1.45942
RightLeg  15.0951 4.55343 0.91888
RightFoot  4.62744 -0.00355511 0.37441
RightToes  -38.2532 -0.207323 -0.309613
96
root  -8.06416 34.5525 -0.233479 4.6917 17.4514 -4.4595
LeftUpLeg  -9.53575 11.4174 0.39508
LeftLeg  11.0158 11.1494 1.42442
LeftFoot  -1.39234 -0.00328757 -0.270567
LeftToes  -4.09672 6.91067e-007 1.07128e-007
Spine  1.29472 0.948424 -0.16038
Spine1  2.51946 1.87978 -0.211227
RightShoulder  0.010233 6.35856 4.49903
RightArm  -37.3018 -20.1104 75.0268
RightForeArm  21.3312 24.9007 4.69063
RightHand  0.310749 -6.40933 -5.08571
LeftShoulder1  0.0176475 -0.331707 -8.59286
LeftArm  -18.4149 16.2394 -66.4317
LeftForeArm  24.9866 -19.3444 -3.54281
LeftHand  0.183705 5.22093 3.65281
HEad  -1.43323 2.9363 -1.57417
RightUpLeg  -6.64549 -11.7129 -1.52071
RightLeg  14.1947 4.21669 0.782616
RightFoot  4.77243 -0.00165715 0.35635
RightToes  -38.1784 -0.206309 -0.310332
97
root  -7.98013 34.5381 -0.139275 4.69385 17.1794 -4.4551
LeftUpLeg  -9.41423 11.4941 0.346392
LeftLeg  11.2802 11.3237 1.49913
LeftFoot  -1.76486 -0.005398 -0.350469
LeftToes  -4.03533 6.91067e-007 1.07128e-007
Spine  1.27441 1.04813 -0.132286
Spine1  2.48071 2.08995 -0.169348
RightShoulder  0.0109177 6.32218 4.55129
RightArm  -36.9772 -19.7738 74.8924
RightForeArm  20.8375 25.3382 4.7851
RightHand  0.315736 -6.35251 -5.26387
LeftShoulder1  0.0171801 -0.289182 -8.69449
LeftArm  -17.4387 17.4863 -66.5502
LeftForeArm  24.7712 -19.7998 -3.63335
LeftHand  0.174593 5.16403 3.49554
HEad  -1.3536 3.39649 -1.49597
RightUpLeg  -6.19866 -11.2974 -1.6555
RightLeg  13.6148 4.1239 0.722509
RightFoot  4.83741 -0.000804087 0.353235
RightToes  -38.4266 -0.206038 -0.310557
98
root  -7.89989 34.5265 -0.0681563 4.74074 16.8253 -4.42419
LeftUpLeg  -9.2922 11.7572 0.253735
LeftLeg  11.3905 11.3655 1.5267
LeftFoot  -2.04435 -0.0072772 -0.40787
LeftToes  -3.96672 6.91067e-007 1.07128e-007
Spine  1.24786 1.13432 -0.128222
Spine1  2.42776 2.27087 -0.167707
RightShoulder  0.0113736 6.29996 4.57468
RightArm  -36.8213 -19.4064 74.8987
RightForeArm  20.6606 25.4362 4.80637
RightHand  0.320775 -6.29967 -5.44837
LeftShoulder1  0.0171789 -0.201169 -8.84191
LeftArm  -16.7685 18.4696 -66.5898
LeftForeArm  24.8036 -19.5326 -3.58018
LeftHand  0.165039 5.11913 3.31622
HEad  -1.21413 3.9902 -1.5644
RightUpLeg  -5.93331 -11.182 -1.83056
RightLeg  13.2403 4.40601 0.742261
RightFoot  4.88604 -0.00214831 0.382375
RightToes  -38.5694 -0.207157 -0.310449
99
root  -7.82551 34.5141 -0.0152692 4.78009 16.5078 -4.39529
LeftUpLeg  -9.24309 11.9543 0.15988
LeftLeg  11.5893 11.4381 1.57646
LeftFoot  -2.31991 -0.00942487 -0.465483
LeftToes  -3.88088 6.91067e-007 1.07128e-007
Spine  1.24189 1.19139 -0.13525
Spine1  2.41619 2.39205 -0.181136
RightShoulder  0.0116091 6.2814 4.5242
RightArm  -36.6224 -19.1092 75.021
RightForeArm  20.5257 25.4904 4.81812
RightHand  0.320604 -6.35358 -5.45718
LeftShoulder1  0.0173873 -0.186851 -8.94022
LeftArm  -16.8427 19.167 -66.7058
LeftForeArm  25.1986 -18.6878 -3.41324
LeftHand  0.161219 5.21858 3.16238
HEad  -0.992992 4.71643 -1.81071
RightUpLeg  -5.83 -11.3567 -2.00673
RightLeg  13.1626 4.88842 0.81649
RightFoot  4.84559 -0.00439733 0.423126
RightToes  -38.6713 -0.208184 -0.310167
